<svg width="210" height="108" viewBox="0 0 210 108" fill="none" xmlns="http://www.w3.org/2000/svg">
<path d="M-53 3.00012C-10.7457 16.1546 34.5384 36.2427 56.9218 77.0593C60.4123 83.4242 66.4525 99.8866 56.2853 103.797C47.3626 107.229 31.0703 101.384 26.2584 93.6113C13.7344 73.3801 4.14598 43.6924 34.7465 34.5124C68.0595 24.5186 112.561 32.5915 145.623 41.1968C161.66 45.3708 180.637 51.6628 194.855 60.2952C204.293 66.0257 195.08 64.1149 188.064 64.1149C178.085 64.1149 155.043 64.1149 177.136 64.1149C186.112 64.1149 195.926 65.5274 203.979 67.8284C212.59 70.2885 199.541 60.1579 198.25 58.2793C194.178 52.3567 189.55 42.7798 189.55 35.4673" stroke="#07360F" stroke-width="5" stroke-linecap="round"/>
</svg>
