<svg width="53" height="53" viewBox="0 0 53 53" fill="none" xmlns="http://www.w3.org/2000/svg">
<path d="M47.7584 26.4997C49.4139 23.7231 50.7244 20.9341 51.6279 18.2247C53.8716 11.4933 53.3504 6.02972 50.161 2.83805C46.9716 -0.351139 41.5062 -0.870655 34.775 1.37147C32.0647 2.27627 29.2774 3.58625 26.5 5.24175C23.7226 3.58625 20.9353 2.27627 18.225 1.37147C11.4913 -0.870655 6.02837 -0.351139 2.83898 2.83805C-0.350402 6.02972 -0.871624 11.4933 1.37211 18.2247C2.27557 20.9341 3.58607 23.7231 5.24157 26.4997C3.58607 29.2762 2.27557 32.0652 1.37211 34.7747C-0.871624 41.5085 -0.350402 46.9721 2.83898 50.1613C4.72531 52.048 7.40589 53 10.6747 53C12.9333 53 15.4724 52.5451 18.225 51.6279C20.9353 50.7231 23.7226 49.4156 26.5 47.7576C29.2774 49.4156 32.0647 50.7231 34.775 51.6279C37.5276 52.5451 40.0667 53 42.3253 53C45.5941 53 48.2747 52.048 50.161 50.1613C53.3504 46.9721 53.8716 41.5085 51.6279 34.7747C50.7244 32.0652 49.4139 29.2762 47.7584 26.4997ZM34.8768 1.67224C37.5946 0.764953 40.1014 0.315036 42.3253 0.315036C45.5072 0.315036 48.1134 1.23724 49.9376 3.06176C53.0377 6.16395 53.5316 11.5107 51.3276 18.1228C51.0794 18.8685 50.8014 19.6192 50.4911 20.3748C49.4164 22.9973 45.882 23.4596 44.1645 21.2051C42.4395 18.9456 40.5035 16.7308 38.3864 14.6129C36.2692 12.4951 34.0552 10.5587 31.7941 8.8361C29.538 7.11847 30.0021 3.58128 32.6256 2.50745C33.3801 2.19922 34.1297 1.92082 34.8768 1.67224ZM46.088 24.444C46.917 25.6918 46.917 27.3075 46.088 28.5554C43.889 31.8564 41.2158 35.1102 38.163 38.1627C35.1101 41.2152 31.8562 43.8898 28.5551 46.0872C27.3091 46.9149 25.6909 46.9149 24.4449 46.0872C21.1438 43.8898 17.8899 41.2152 14.837 38.1627C11.7842 35.1102 9.10855 31.8564 6.91197 28.5554C6.08297 27.3075 6.08297 25.6918 6.91197 24.444C9.10855 21.1429 11.7842 17.8891 14.837 14.8366C17.8899 11.7842 21.1438 9.10953 24.4449 6.91215C25.6909 6.08441 27.3091 6.08441 28.5551 6.91215C31.8562 9.10953 35.1101 11.7842 38.163 14.8366C41.2158 17.8891 43.889 21.1429 46.088 24.444ZM1.67244 18.1228C-0.531588 11.5107 -0.0376677 6.16395 3.06236 3.06176C6.1624 -0.0379361 11.5111 -0.532597 18.1232 1.67224C18.8678 1.92082 19.6199 2.19922 20.3744 2.50745C22.9979 3.58128 23.4595 7.11847 21.2059 8.8361C18.9448 10.5587 16.7308 12.4951 14.6136 14.6129C12.4965 16.7308 10.558 18.9456 8.83552 21.2051C7.11797 23.4596 3.58359 22.9973 2.50888 20.3748C2.19862 19.6192 1.92064 18.8685 1.67244 18.1228ZM18.1232 51.3271C11.5111 53.5319 6.1624 53.0373 3.06236 49.9376C-0.0376677 46.8379 -0.531588 41.4886 1.67244 34.8766C1.92064 34.1309 2.19862 33.3802 2.50888 32.6245C3.58359 30.0021 7.11797 29.5397 8.83552 31.7943C10.558 34.0538 12.4965 36.2686 14.6136 38.3864C16.7308 40.5043 18.9448 42.4406 21.2059 44.1632C23.462 45.8809 22.9979 49.4181 20.3744 50.4919C19.6199 50.8001 18.8678 51.0785 18.1232 51.3271ZM49.9376 49.9376C46.8376 53.0373 41.4889 53.5319 34.8768 51.3271C34.1322 51.0785 33.3801 50.8001 32.6256 50.4919C30.0021 49.4181 29.538 45.8809 31.7941 44.1632C34.0552 42.4406 36.2692 40.5043 38.3864 38.3864C40.5035 36.2686 42.442 34.0538 44.1645 31.7943C45.882 29.5397 49.4164 30.0021 50.4911 32.6245C50.8014 33.3802 51.0794 34.1309 51.3276 34.8766C53.5316 41.4886 53.0377 46.8379 49.9376 49.9376Z" fill="#07360F"/>
</svg>
